<?xml version="1.0" encoding="UTF-8"?>
<svg version="1.1" xmlns="http://www.w3.org/2000/svg" width="720" height="720">
<path d="M0 0 C237.6 0 475.2 0 720 0 C720 237.6 720 475.2 720 720 C482.4 720 244.8 720 0 720 C0 482.4 0 244.8 0 0 Z " fill="#000000" transform="translate(0,0)"/>
<path d="M0 0 C8.7645697 7.18461881 13.89636834 14.74496753 17.05859375 25.6875 C17.30018978 28.35395265 17.45604335 30.91799118 17.5 33.5859375 C17.52065773 34.71486923 17.52065773 34.71486923 17.54173279 35.86660767 C17.56492305 37.45836146 17.5822299 39.0502106 17.59399414 40.64208984 C17.62064521 43.02243873 17.6955416 45.39813342 17.77148438 47.77734375 C17.99781953 61.10485212 14.71922654 72.26070492 6.24609375 82.8125 C-1.98665522 91.140609 -12.58210407 95.99197563 -24.28588867 96.15576172 C-25.12095947 96.14561035 -25.95603027 96.13545898 -26.81640625 96.125 C-28.13185425 96.11364014 -28.13185425 96.11364014 -29.47387695 96.10205078 C-36.24547227 95.93017333 -41.92312469 94.95079118 -47.94140625 91.6875 C-48.72515625 91.26339844 -49.50890625 90.83929688 -50.31640625 90.40234375 C-60.55744463 84.19198433 -66.78970517 75.32791357 -70.48120117 64.03637695 C-71.61352969 58.25699623 -71.24958392 52.11354569 -71.29150391 46.23681641 C-71.30796694 44.55145364 -71.33512767 42.86615785 -71.37353516 41.18115234 C-71.68583588 27.37746039 -69.99530239 16.62985295 -60.82421875 5.65234375 C-44.93378331 -10.93041357 -18.76705976 -13.77398882 0 0 Z " fill="#FCFCFC" transform="translate(145.94140625,304.3125)"/>
<path d="M0 0 C0.69351563 0.25523437 1.38703125 0.51046875 2.1015625 0.7734375 C13.67052201 5.79740797 20.65692972 15.36408483 25.25982666 26.71496582 C27.19599527 32.6922298 26.98459835 38.93389778 26.76831055 45.1484375 C26.68656171 47.52730402 26.66573992 49.90109635 26.65429688 52.28125 C26.63107105 53.82297279 26.60450122 55.36464967 26.57421875 56.90625 C26.56460617 57.6022229 26.55499359 58.2981958 26.54508972 59.01525879 C26.12796566 69.90988598 20.1245798 80.89323462 12.26171875 88.33203125 C-0.15242618 97.48719513 -12.93043543 99.35293052 -28 98 C-40.50626856 95.19990172 -49.18217261 88.16131013 -56.33984375 77.7734375 C-62.20770876 67.97065124 -62.19955479 57.30436298 -62.25 46.1875 C-62.270625 45.06279297 -62.29125 43.93808594 -62.3125 42.77929688 C-62.37476436 29.3846775 -58.47633488 18.70281112 -49.375 8.75 C-36.11013497 -3.8274344 -16.75243782 -6.23472605 0 0 Z " fill="#FCFBFC" transform="translate(392,422)"/>
<path d="M0 0 C50.78548896 0 50.78548896 0 63 8 C64.3303125 8.86625 64.3303125 8.86625 65.6875 9.75 C73.07854657 16.94128855 78.59102993 27.34298046 79.14526367 37.71972656 C79.16995846 40.89659101 79.18565507 44.07303246 79.1875 47.25 C79.19974609 48.34441406 79.21199219 49.43882812 79.22460938 50.56640625 C79.2470204 63.04187835 76.82591014 77.01858121 67.84765625 86.41015625 C48.22212461 103.29724162 26.24445061 98 0 98 C0 65.66 0 33.32 0 0 Z " fill="#FDFCFD" transform="translate(439,421)"/>
<path d="M0 0 C3.91412723 2.83336076 7.34945854 6.12715908 10.65625 9.640625 C9.26292426 13.00782887 7.6773214 14.6265774 4.65625 16.640625 C5.13005944 20.90490996 7.69522727 22.75552593 10.65625 25.640625 C10.65625 26.300625 10.65625 26.960625 10.65625 27.640625 C8.65226863 29.49699167 6.53500008 31.17558804 4.40625 32.88671875 C2.30309098 34.58163275 2.30309098 34.58163275 2.65625 37.640625 C4.2784954 39.35055934 5.95038425 41.01410184 7.65625 42.640625 C12.54803044 48.5806441 11.87478652 54.46093411 11.89648438 61.87255859 C11.9061482 63.86958805 11.93733516 65.86647552 11.96875 67.86328125 C12.01015695 78.08044637 10.73505369 84.13206882 3.7578125 91.77734375 C-6.2368799 100.63880895 -18.3004467 100.26570213 -30.86572266 99.81542969 C-40.61936064 99.12738981 -48.46184051 93.86552578 -55.01171875 86.85546875 C-56.166824 85.48681463 -57.26361655 84.0691886 -58.34375 82.640625 C-56.36375 80.330625 -54.38375 78.020625 -52.34375 75.640625 C-54.08756547 72.15299407 -55.87181709 69.60694449 -58.34375 66.640625 C-57.68246094 65.97675781 -57.02117187 65.31289063 -56.33984375 64.62890625 C-55.07333984 63.30439453 -55.07333984 63.30439453 -53.78125 61.953125 C-52.51087891 60.64794922 -52.51087891 60.64794922 -51.21484375 59.31640625 C-49.1070346 56.85765419 -49.1070346 56.85765419 -49.37890625 54.24609375 C-50.35081959 51.50254232 -50.35081959 51.50254232 -51.87255859 48.42675781 C-54.22797826 42.93501091 -53.90171773 37.18181639 -53.8996582 31.30737305 C-53.90622776 29.21022323 -53.96081468 27.11780032 -54.01757812 25.02148438 C-54.10667565 17.92965932 -53.89322858 12.58233626 -48.94775391 7.16088867 C-48.41843262 6.65920166 -47.88911133 6.15751465 -47.34375 5.640625 C-46.78953369 5.06723389 -46.23531738 4.49384277 -45.66430664 3.90307617 C-34.51176377 -7.28196561 -13.22719672 -7.6717741 0 0 Z " fill="#FCFCFC" transform="translate(416.34375,300.359375)"/>
<path d="M0 0 C19.8 0 39.6 0 60 0 C60 10.23 60 20.46 60 31 C47.13 31 34.26 31 21 31 C21 31.66 21 32.32 21 33 C32.22 33 43.44 33 55 33 C55 43.23 55 53.46 55 64 C43.78 64 32.56 64 21 64 C21 64.99 21 65.98 21 67 C34.2 67 47.4 67 61 67 C61 77.23 61 87.46 61 98 C40.87 98 20.74 98 0 98 C0 65.66 0 33.32 0 0 Z " fill="#FDFCFD" transform="translate(538,421)"/>
<path d="M0 0 C49.51075269 0 49.51075269 0 57.3125 7.125 C58.11300781 7.82882812 58.91351563 8.53265625 59.73828125 9.2578125 C66.26049692 17.16557658 66.62716281 24.94992086 66.5 34.9375 C66.52320313 36.75411133 66.52320313 36.75411133 66.546875 38.60742188 C66.5027648 48.79136535 64.24079776 57.1806018 57.84375 65.2421875 C52.29336896 70.53386433 44.80027252 73.14615559 37.234375 73.09765625 C36.43225586 73.09515869 35.63013672 73.09266113 34.80371094 73.09008789 C33.79598633 73.08098389 32.78826172 73.07187988 31.75 73.0625 C28.5325 73.041875 25.315 73.02125 22 73 C22 82.24 22 91.48 22 101 C14.74 101 7.48 101 0 101 C0 67.67 0 34.34 0 0 Z " fill="#FDFDFD" transform="translate(183,298)"/>
<path d="M0 0 C1.7375567 1.41035447 3.33763113 2.77314437 4.8046875 4.46484375 C4.63862848 7.12178813 4.01554751 8.22868054 2.2421875 10.21484375 C1.7678125 10.62734375 1.2934375 11.03984375 0.8046875 11.46484375 C1.95642105 13.93284422 2.85252315 15.5126794 4.8046875 17.46484375 C4.8046875 18.45484375 4.8046875 19.44484375 4.8046875 20.46484375 C4.1446875 20.46484375 3.4846875 20.46484375 2.8046875 20.46484375 C2.54945313 21.0371875 2.29421875 21.60953125 2.03125 22.19921875 C0.67381591 24.70658108 -0.91505354 26.59788935 -2.8203125 28.71484375 C-3.76777344 29.77445312 -3.76777344 29.77445312 -4.734375 30.85546875 C-5.21648437 31.3865625 -5.69859375 31.91765625 -6.1953125 32.46484375 C-9.36285685 31.8412556 -11.57509745 30.74298244 -14.2578125 28.96484375 C-20.09106328 25.11333076 -25.32009757 24.80557657 -32.1953125 25.46484375 C-38.49282249 27.24878003 -42.46907426 31.23005923 -46.1953125 36.46484375 C-47.78074757 39.6357139 -47.53596687 41.94474859 -47.1953125 45.46484375 C-44.60067874 51.86655696 -40.35025513 55.55201082 -34.1953125 58.46484375 C-31.8226039 59.38951128 -31.8226039 59.38951128 -29.1953125 59.46484375 C-28.47730469 59.53832031 -27.75929688 59.61179687 -27.01953125 59.6875 C-20.0323064 60.11129746 -15.06661481 58.19086253 -9.1953125 54.46484375 C-8.5353125 53.80484375 -7.8753125 53.14484375 -7.1953125 52.46484375 C-6.2053125 52.46484375 -5.2153125 52.46484375 -4.1953125 52.46484375 C-2.48836373 54.94124612 -0.98161238 57.35572435 0.4921875 59.96484375 C0.90791016 60.68027344 1.32363281 61.39570313 1.75195312 62.1328125 C2.7794855 63.90442004 3.79337986 65.68392463 4.8046875 67.46484375 C3.4296875 69.46484375 3.4296875 69.46484375 1.8046875 71.46484375 C1.1446875 71.46484375 0.4846875 71.46484375 -0.1953125 71.46484375 C1.4546875 74.76484375 3.1046875 78.06484375 4.8046875 81.46484375 C-1.20095729 86.45066207 -6.77479561 89.12720111 -14.1953125 91.46484375 C-15.1853125 91.79484375 -16.1753125 92.12484375 -17.1953125 92.46484375 C-27.74956068 93.39799374 -38.69618646 93.61555229 -48.1953125 88.46484375 C-48.9790625 88.04074219 -49.7628125 87.61664062 -50.5703125 87.1796875 C-59.50936423 81.75887741 -66.90792407 73.58271704 -69.77612305 63.40356445 C-71.43109785 55.81328169 -71.59805161 48.33766026 -71.6328125 40.58984375 C-71.66568359 39.30464844 -71.69855469 38.01945312 -71.73242188 36.6953125 C-71.8034753 23.97029034 -68.02602191 13.72370877 -59.1953125 4.46484375 C-42.79707198 -11.17509663 -18.50763564 -13.16486535 0 0 Z " fill="#FBFBFC" transform="translate(312.1953125,427.53515625)"/>
<path d="M0 0 C6.93 0 13.86 0 21 0 C21.01401855 2.60406738 21.01401855 2.60406738 21.02832031 5.26074219 C21.06385994 11.00054332 21.11766564 16.74001741 21.18390274 22.47953415 C21.22339051 25.95903137 21.2555721 29.43827505 21.27099609 32.91796875 C21.28905547 36.91968376 21.33899981 40.92045124 21.390625 44.921875 C21.39185364 46.16990906 21.39308228 47.41794312 21.39434814 48.70379639 C21.41406677 49.86469788 21.4337854 51.02559937 21.45410156 52.22167969 C21.46298401 53.24316101 21.47186646 54.26464233 21.48101807 55.31707764 C22.12876863 58.66568068 23.5089852 59.7649776 26 62 C26 62.66 26 63.32 26 64 C30.81398175 66.56745693 35.68731955 66.5448903 41 66 C44.7659357 64.6990404 46.44283535 63.74929039 48.8125 60.5625 C50.69395579 56.50251645 51.13233272 53.05165639 51.20532227 48.58886719 C51.22526749 47.50804871 51.24521271 46.42723022 51.26576233 45.31365967 C51.29083107 43.57285126 51.29083107 43.57285126 51.31640625 41.796875 C51.33718735 40.60394836 51.35796844 39.41102173 51.37937927 38.1819458 C51.44476239 34.37135577 51.50370776 30.56069686 51.5625 26.75 C51.60569589 24.16665954 51.64931052 21.58332605 51.69335938 19 C51.80043237 12.66673726 51.90173174 6.33340523 52 0 C58.93 0 65.86 0 73 0 C73.06795868 9.49295687 73.12292122 18.98575039 73.15543652 28.47889614 C73.17104751 32.88763453 73.19220165 37.29619688 73.22631836 41.70483398 C73.25907562 45.96478553 73.27688731 50.22456846 73.28463173 54.48463631 C73.29014601 56.10442824 73.30091365 57.72421166 73.31719017 59.3439312 C73.4473207 72.83850351 71.96747212 82.54432493 62.40625 92.69140625 C54.15140055 100.45953108 43.69302211 102.3871939 32.73828125 102.2734375 C22.18143726 101.50125455 13.45204336 97.16258535 6.44140625 89.23828125 C1.69502699 82.97080716 -0.4625619 76.99547464 -0.34057617 69.13696289 C-0.34101425 68.38491577 -0.34145233 67.63286865 -0.34190369 66.85803223 C-0.33982964 64.39596722 -0.31656524 61.93460087 -0.29296875 59.47265625 C-0.28736785 57.75630566 -0.28310008 56.03995025 -0.28010559 54.32359314 C-0.2686957 49.82394989 -0.23926206 45.32460089 -0.20599365 40.82507324 C-0.1752093 36.2265216 -0.16158243 31.62792204 -0.14648438 27.02929688 C-0.1143883 18.01938171 -0.06165223 9.00976145 0 0 Z " fill="#FDFDFD" transform="translate(269,298)"/>
<path d="M0 0 C2.41608627 3.6241294 2.37368309 6.40490365 2.44140625 10.60546875 C2.46206398 11.74076775 2.46206398 11.74076775 2.48313904 12.89900208 C2.50642858 14.50868433 2.52368511 16.11846339 2.53540039 17.72827148 C2.56192418 20.13524551 2.6366922 22.53752452 2.71289062 24.94335938 C2.93852943 38.34030687 -0.29386757 49.51307934 -8.8125 60.125 C-17.04524897 68.453109 -27.64069782 73.30447563 -39.34448242 73.46826172 C-40.17955322 73.45811035 -41.01462402 73.44795898 -41.875 73.4375 C-43.190448 73.42614014 -43.190448 73.42614014 -44.5324707 73.41455078 C-51.30406602 73.24267333 -56.98171844 72.26329118 -63 69 C-63.78375 68.57589844 -64.5675 68.15179688 -65.375 67.71484375 C-75.57040632 61.53215647 -82.10296756 52.552759 -85.55078125 41.18383789 C-86.08246757 38.59909106 -86.11231716 36.21708876 -86.09765625 33.578125 C-86.09443359 32.55332031 -86.09121094 31.52851563 -86.08789062 30.47265625 C-86.07951172 29.40917969 -86.07113281 28.34570312 -86.0625 27.25 C-86.05798828 26.17105469 -86.05347656 25.09210938 -86.04882812 23.98046875 C-86.03705727 21.32025617 -86.02061399 18.66015635 -86 16 C-85.67 16 -85.34 16 -85 16 C-84.92523438 16.79921875 -84.85046875 17.5984375 -84.7734375 18.421875 C-83.47895744 29.23459081 -80.17957388 39.06031417 -71.9140625 46.54296875 C-63.01957325 53.3136718 -53.79117626 56.56399758 -42.6875 56.4375 C-41.2948291 56.42614014 -41.2948291 56.42614014 -39.87402344 56.41455078 C-28.32208673 56.13699636 -18.70840189 52.36399733 -10.25 44.33984375 C-3.88706939 37.3565274 0.29341077 28.46084466 0.1953125 18.9453125 C0.18886719 17.83671875 0.18242187 16.728125 0.17578125 15.5859375 C0.15902344 14.44382812 0.14226562 13.30171875 0.125 12.125 C0.11597656 10.9596875 0.10695313 9.794375 0.09765625 8.59375 C0.07417432 5.72895423 0.04133141 2.86458465 0 0 Z " fill="#DDAFF8" transform="translate(161,327)"/>
<path d="M0 0 C0.33 0 0.66 0 1 0 C1.06971764 9.49292813 1.12292128 18.98576721 1.15543652 28.47889614 C1.17104751 32.88763453 1.19220165 37.29619688 1.22631836 41.70483398 C1.25907562 45.96478553 1.27688731 50.22456846 1.28463173 54.48463631 C1.29014601 56.10442824 1.30091365 57.72421166 1.31719017 59.3439312 C1.4473207 72.83850351 -0.03252788 82.54432493 -9.59375 92.69140625 C-17.84859945 100.45953108 -28.30697789 102.3871939 -39.26171875 102.2734375 C-49.81856274 101.50125455 -58.54795664 97.16258535 -65.55859375 89.23828125 C-70.54585847 82.65272398 -72.47861935 76.72130652 -72.1875 68.5625 C-72.17396484 67.83095703 -72.16042969 67.09941406 -72.14648438 66.34570312 C-72.11153874 64.56347578 -72.05774805 62.78163427 -72 61 C-69.81674759 63.18325241 -69.05815786 64.94408126 -67.8125 67.75 C-63.53411075 76.39383875 -56.72528191 80.33158164 -48 84 C-37.8157137 87.40905583 -25.81900032 85.17068271 -16.37890625 80.78125 C-9.98384691 77.36041588 -6.41577367 73.34687676 -3 67 C-2.65272858 66.42433289 -2.30545715 65.84866577 -1.94766235 65.2555542 C-0.7179602 62.32871023 -0.7192348 59.93623356 -0.68115234 56.76269531 C-0.66128265 55.50169006 -0.64141296 54.24068481 -0.62094116 52.94146729 C-0.6090657 51.57035497 -0.59740279 50.1992408 -0.5859375 48.828125 C-0.56722131 47.42135487 -0.54764755 46.01459591 -0.5272522 44.60784912 C-0.47597239 40.91227817 -0.43632466 37.21667083 -0.39910889 33.52093506 C-0.35904307 29.74693839 -0.30796252 25.97309251 -0.2578125 22.19921875 C-0.16110244 14.7995827 -0.07668213 7.39987357 0 0 Z " fill="#DDB0F8" transform="translate(341,298)"/>
<path d="M0 0 C4.3834803 3.6885383 8.21386183 7.6965976 9.4375 13.4375 C9.58559968 19.46727271 5.98863076 23.80817484 2 28 C-3.33792873 32.61434283 -9.76621802 32.72017245 -16.58203125 32.515625 C-23.24055253 31.5111395 -27.14176907 28.0905098 -31.5 23.1875 C-33.42562413 19.09554872 -34.32674896 15.53364189 -34 11 C-31.19049851 5.02980933 -26.04461196 0.45611876 -20.125 -2.375 C-13.15113561 -3.76977288 -6.20880407 -3.83484957 0 0 Z " fill="#020202" transform="translate(387,455)"/>
<path d="M0 0 C0.33 0 0.66 0 1 0 C1.02187378 0.83809204 1.02187378 0.83809204 1.04418945 1.69311523 C1.11960798 4.27520052 1.21594881 6.85612184 1.3125 9.4375 C1.33505859 10.31599609 1.35761719 11.19449219 1.38085938 12.09960938 C1.83888075 23.3835904 5.46981885 31.53494943 13 40 C16.12412867 42.79826757 19.33543114 44.96903413 23 47 C23.7734375 47.433125 24.546875 47.86625 25.34375 48.3125 C35.64404204 53.00630397 50.63973032 52.92761424 61.3125 49.375 C71.70973355 44.66836588 80.58558186 36.23440119 85.32421875 25.796875 C86.16545971 23.56004934 86.7036386 21.37089123 87 19 C87.33 19 87.66 19 88 19 C88.58580165 33.23281042 88.58580165 33.23281042 85 40 C84.57460938 40.81210937 84.14921875 41.62421875 83.7109375 42.4609375 C77.41649639 53.66975509 68.51379698 60.9003572 56.06884766 64.56933594 C43.07369604 67.27448669 29.79192315 65.27241498 18.4921875 58.49609375 C8.64389755 51.56890675 2.68112849 41.74420307 0.4375 30.07421875 C-0.35089498 24.27815635 -0.10388601 18.39792798 -0.0625 12.5625 C-0.05798828 11.35400391 -0.05347656 10.14550781 -0.04882812 8.90039062 C-0.03710145 5.93354211 -0.02068896 2.9667973 0 0 Z " fill="#DCAEF8" transform="translate(330,455)"/>
<path d="M0 0 C0.33 0 0.66 0 1 0 C1 28.05 1 56.1 1 85 C8.0125 84.9175 15.025 84.835 22.25 84.75 C25.53179199 84.72631348 25.53179199 84.72631348 28.87988281 84.70214844 C42.72649546 84.51321588 55.03832572 83.45798536 66 74 C74.55296636 64.77733829 76.92975919 55.36490427 77.5625 43.125 C77.60568359 42.34125 77.64886719 41.5575 77.69335938 40.75 C77.79853351 38.83349351 77.89967925 36.91676667 78 35 C78.33 35 78.66 35 79 35 C79.05868218 38.9791034 79.0938239 42.95809353 79.125 46.9375 C79.14175781 48.05447266 79.15851563 49.17144531 79.17578125 50.32226562 C79.24954406 62.898825 76.91479786 76.92560147 67.84765625 86.41015625 C48.22212461 103.29724162 26.24445061 98 0 98 C0 65.66 0 33.32 0 0 Z " fill="#DDB1F7" transform="translate(439,421)"/>
<path d="M0 0 C0.99 0.495 0.99 0.495 2 1 C2.43895657 11.81133778 1.57201273 18.95101265 -5.8984375 27.13671875 C-15.8931299 35.99818395 -27.9566967 35.62507713 -40.52197266 35.17480469 C-50.27561064 34.48676481 -58.11809051 29.22490078 -64.66796875 22.21484375 C-65.823074 20.84618963 -66.91986655 19.4285636 -68 18 C-65.69 15.03 -63.38 12.06 -61 9 C-58.94921875 10.46484375 -56.8984375 11.9296875 -54.84765625 13.39453125 C-47.52378919 17.52362503 -40.51550764 18.5557857 -32.1875 18.5 C-30.73935913 18.49359497 -30.73935913 18.49359497 -29.26196289 18.48706055 C-20.05948504 18.26800922 -13.13694321 16.46152391 -5.9375 10.4375 C-4.9784375 9.2309375 -4.9784375 9.2309375 -4 8 C-3.13375 6.9790625 -3.13375 6.9790625 -2.25 5.9375 C-0.96202107 3.94113267 -0.41534898 2.32595428 0 0 Z " fill="#DEAFFA" transform="translate(426,365)"/>
<path d="M0 0 C3.135 -0.0825 6.27 -0.165 9.5 -0.25 C10.47130859 -0.28641602 11.44261719 -0.32283203 12.44335938 -0.36035156 C18.50204067 -0.43676292 22.9889722 0.48868841 28 4 C31.57178872 7.54513358 34.30148848 11.90327819 34.75 17 C34.29352158 22.18725472 31.47554073 26.26728395 28 30 C19.3842863 36.11329393 10.58185342 35 0 35 C0 23.45 0 11.9 0 0 Z " fill="#020202" transform="translate(461,453)"/>
<path d="M0 0 C5.92424578 1.98573468 10.60212999 4.62003915 14 10 C14.66 10.99 15.32 11.98 16 13 C15.79415751 18.45482588 14.39309825 21.75862718 11 26 C4.59016321 31.76885311 -0.04241151 32.45903265 -8.58203125 32.30859375 C-14.76813142 31.75007728 -18.08985339 29.14579594 -22.375 24.75 C-24.8082747 21.66565991 -26.14445846 19.00371045 -26.359375 15.05078125 C-25.50139468 10.15469792 -22.04712846 6.46767268 -18.109375 3.64453125 C-16.45186925 2.67997433 -14.72836046 1.83094253 -13 1 C-8.99964804 -1.00017598 -4.3476961 -0.49928381 0 0 Z " fill="#020202" transform="translate(124,332)"/>
<path d="M0 0 C0.33 0 0.66 0 1 0 C1.0093457 0.6798999 1.01869141 1.3597998 1.02832031 2.06030273 C1.08251276 5.18672895 1.16606239 8.31173648 1.25 11.4375 C1.26417969 12.50677734 1.27835938 13.57605469 1.29296875 14.67773438 C1.6430219 26.12447239 5.65850103 34.53913164 13.66015625 42.69140625 C21.97568669 50.24925738 31.44720078 53.39391608 42.5625 53.375 C43.88616577 53.3747583 43.88616577 53.3747583 45.23657227 53.37451172 C52.75473831 53.24426174 59.00792748 51.84669817 66 49 C66.93972656 48.62617188 67.87945312 48.25234375 68.84765625 47.8671875 C69.55792969 47.58101563 70.26820313 47.29484375 71 47 C72.65 49.97 74.3 52.94 76 56 C69.99435521 60.98581832 64.42051689 63.66235736 57 66 C56.01 66.33 55.02 66.66 54 67 C43.44575182 67.93314999 32.49912604 68.15070854 23 63 C22.21625 62.57589844 21.4325 62.15179687 20.625 61.71484375 C11.65868837 56.27750275 4.36441873 48.13012792 1.40820312 37.96508789 C-0.34479576 30.13371884 -0.22552038 22.35024903 -0.125 14.375 C-0.11494398 12.97526686 -0.10582279 11.57552669 -0.09765625 10.17578125 C-0.07426238 6.78367075 -0.04148173 3.3919294 0 0 Z " fill="#DDB0F9" transform="translate(241,453)"/>
<path d="M0 0 C20.13 0 40.26 0 61 0 C61 4.29 61 8.58 61 13 C40.87 13 20.74 13 0 13 C0 8.71 0 4.42 0 0 Z " fill="#E0B1FD" transform="translate(538,506)"/>
<path d="M0 0 C6.34149739 6.51288921 7.72529817 12.00485762 7.625 20.9375 C7.56016736 23.75427127 7.44913435 26.56033248 7.3125 29.375 C6.9825 29.375 6.6525 29.375 6.3125 29.375 C6.065 28.50875 5.8175 27.6425 5.5625 26.75 C3.42340592 20.97444597 1.14733749 17.53653694 -4.25 14.5 C-10.47003665 11.66937949 -16.3463004 11.1678616 -22.94921875 13.00390625 C-28.32972183 15.28933899 -32.07637041 19.16241167 -34.6875 24.375 C-35.14126346 26.93828084 -35.01463121 28.75795029 -34.6875 31.375 C-35.3475 31.045 -36.0075 30.715 -36.6875 30.375 C-36.7419207 27.68722198 -36.78137266 25.00056788 -36.8125 22.3125 C-36.82925781 21.56033203 -36.84601563 20.80816406 -36.86328125 20.03320312 C-36.92956684 12.37721762 -35.58600028 6.5938564 -30.3359375 0.8828125 C-21.41439673 -7.27764896 -9.59737346 -5.80306303 0 0 Z " fill="#DFB1FB" transform="translate(133.6875,320.625)"/>
<path d="M0 0 C0.33 0 0.66 0 1 0 C3.3371741 10.5837884 2.0281016 18.82494403 -3.25 28.2265625 C-7.63616436 34.88057321 -14.27477105 38.38582543 -22 40 C-23.58692639 40.07866959 -25.17678249 40.10784114 -26.765625 40.09765625 C-27.65507812 40.09443359 -28.54453125 40.09121094 -29.4609375 40.08789062 C-30.84152344 40.07532227 -30.84152344 40.07532227 -32.25 40.0625 C-33.65378906 40.05573242 -33.65378906 40.05573242 -35.0859375 40.04882812 C-37.39065247 40.03706938 -39.69533446 40.01913468 -42 40 C-42 34.72 -42 29.44 -42 24 C-40.68386719 23.97421875 -39.36773437 23.9484375 -38.01171875 23.921875 C-19.90635215 23.43943867 -19.90635215 23.43943867 -5 14 C-1.15288426 9.32107545 -0.40489763 5.8710156 0 0 Z " fill="#DDAFF9" transform="translate(247,331)"/>
<path d="M0 0 C1.90751955 1.25751846 3.52441441 1.72505158 5.75390625 2.15625 C7.40390625 0.17625 9.05390625 -1.80375 10.75390625 -3.84375 C15.44140625 -0.23046875 15.44140625 -0.23046875 16.75390625 1.15625 C16.75390625 2.14625 16.75390625 3.13625 16.75390625 4.15625 C16.09390625 4.15625 15.43390625 4.15625 14.75390625 4.15625 C14.37105469 5.01476562 14.37105469 5.01476562 13.98046875 5.890625 C12.62303466 8.39798733 11.03416521 10.2892956 9.12890625 12.40625 C8.49726563 13.11265625 7.865625 13.8190625 7.21484375 14.546875 C6.73273438 15.07796875 6.250625 15.6090625 5.75390625 16.15625 C2.5863619 15.53266185 0.3741213 14.43438869 -2.30859375 12.65625 C-8.14184453 8.80473701 -13.37087882 8.49698282 -20.24609375 9.15625 C-26.35985906 10.88813574 -30.95670547 14.75689227 -34.24609375 20.15625 C-35.22800606 22.85178811 -35.74718936 25.31249497 -36.24609375 28.15625 C-36.57609375 28.15625 -36.90609375 28.15625 -37.24609375 28.15625 C-37.5778697 16.06485988 -37.65358739 9.13705105 -29.31640625 0.0390625 C-21.23973465 -7.30613695 -8.35350709 -6.20649339 0 0 Z " fill="#DEAFFA" transform="translate(300.24609375,443.84375)"/>
<path d="M0 0 C2 3 2 3 2.9375 4.83203125 C6.69972892 11.84471531 11.83973896 15.38246466 19.41601562 17.75732422 C23.10081699 18.81079263 26.78717102 19.82877224 30.51171875 20.73291016 C36.22376049 22.18713224 39.86302741 23.7352185 44 28 C44.6875 30.5625 44.6875 30.5625 44 33 C41.20616975 36.3525963 38.50219899 37.32389054 34.3125 37.9375 C26.56791919 38.38629443 20.42024822 36.54396599 14.5 31.5 C12.24804463 29.39571384 10.72857816 27.59286724 9 25 C8.34 25 7.68 25 7 25 C6.34 25.66 5.68 26.32 5 27 C-0.38542292 17.92171565 -0.57614726 10.20420819 0 0 Z " fill="#DDAFF9" transform="translate(363,329)"/>
<path d="M0 0 C5.48501243 4.00871508 8.96956555 8.05261337 10.32421875 14.81640625 C10.95760392 19.69279101 11.047713 24.46858174 10.88671875 29.37890625 C8.88671875 26.37890625 8.88671875 26.37890625 7.69921875 23.06640625 C5.43345348 17.66518804 1.19492136 14.48282924 -3.98828125 12.00390625 C-10.97033487 10.60749553 -17.87765424 10.57669466 -24.11328125 14.37890625 C-29.07670783 18.71701925 -31.90000317 22.90808984 -33.11328125 29.37890625 C-33.44328125 29.37890625 -33.77328125 29.37890625 -34.11328125 29.37890625 C-34.46752709 20.12915388 -34.6135289 11.86376517 -28.48828125 4.44140625 C-20.88261371 -3.30105387 -9.70765633 -5.65131312 0 0 Z " fill="#DEB0FA" transform="translate(386.11328125,441.62109375)"/>
<path d="M0 0 C3.90820294 1.62907057 6.71810643 3.95018595 9.8125 6.8125 C12.30611571 5.60868552 14.49393083 4.35821278 16.8125 2.8125 C17.98510611 4.09877711 19.1504283 5.39169783 20.3125 6.6875 C21.28703125 7.76644531 21.28703125 7.76644531 22.28125 8.8671875 C23.8125 10.8125 23.8125 10.8125 23.8125 12.8125 C22.16796875 14.46875 22.16796875 14.46875 20 16.3125 C19.29230469 16.9209375 18.58460938 17.529375 17.85546875 18.15625 C15.8125 19.8125 15.8125 19.8125 12.8125 21.8125 C11.078125 21.2734375 11.078125 21.2734375 9.0625 20.1875 C3.69085618 17.56783134 -1.86044335 16.23742648 -7.63671875 14.83984375 C-12.08965544 13.55148033 -15.88130195 12.11869805 -19.1875 8.8125 C-19.6875 5.9375 -19.6875 5.9375 -19.1875 2.8125 C-13.62216234 -2.61013669 -6.99826623 -2.32829507 0 0 Z " fill="#E1B3FD" transform="translate(403.1875,315.1875)"/>
<path d="M0 0 C12.87 0 25.74 0 39 0 C39 4.29 39 8.58 39 13 C26.13 13 13.26 13 0 13 C0 8.71 0 4.42 0 0 Z " fill="#E0B0FD" transform="translate(559,439)"/>
<path d="M0 0 C0.33 0 0.66 0 1 0 C1 10.23 1 20.46 1 31 C-10.22 31 -21.44 31 -33 31 C-33 26.71 -33 22.42 -33 18 C-22.11 18 -11.22 18 0 18 C0 12.06 0 6.12 0 0 Z " fill="#D3A7EE" transform="translate(592,454)"/>
<path d="M0 0 C3.02138567 -0.08149592 6.04053905 -0.14073421 9.0625 -0.1875 C9.91005859 -0.21263672 10.75761719 -0.23777344 11.63085938 -0.26367188 C18.20212707 -0.33978694 22.84755335 0.51364408 28.14453125 4.69140625 C35.16101833 12.56236014 35.39005808 20.81515015 35 31 C34.67 31 34.34 31 34 31 C33.76216797 30.11248047 33.76216797 30.11248047 33.51953125 29.20703125 C31.60951632 22.73830664 29.31887414 19.09423531 23.48046875 15.41015625 C18.82983331 13.52589206 14.59850351 13.43666022 9.625 13.3125 C8.69816406 13.27833984 7.77132813 13.24417969 6.81640625 13.20898438 C4.54468156 13.12701493 2.27236233 13.06181849 0 13 C0 8.71 0 4.42 0 0 Z " fill="#DEB0FB" transform="translate(461,440)"/>
<path d="M0 0 C0.33 0 0.66 0 1 0 C1 28.05 1 56.1 1 85 C7.93 85 14.86 85 22 85 C22 90.28 22 95.56 22 101 C14.74 101 7.48 101 0 101 C0 67.67 0 34.34 0 0 Z " fill="#D0A9E7" transform="translate(183,298)"/>
<path d="M0 0 C2.51625 -0.103125 5.0325 -0.20625 7.625 -0.3125 C8.79603271 -0.38078003 8.79603271 -0.38078003 9.99072266 -0.45043945 C13.88533909 -0.5270662 16.35954098 -0.15418655 19.48828125 2.26953125 C22 5 22 5 22.69140625 7.0625 C22.40136076 11.42197167 21.8686971 14.49381465 19 18 C15.23508833 19.25497056 11.72793525 19.10661648 7.8125 19.0625 C5.234375 19.041875 2.65625 19.02125 0 19 C0 12.73 0 6.46 0 0 Z " fill="#E0B1FC" transform="translate(205,317)"/>
<path d="M0 0 C5.61 0 11.22 0 17 0 C17.33 0.66 17.66 1.32 18 2 C14.81175432 3.59412284 11.37103338 3.10174735 7.875 3.0625 C7.12089844 3.05798828 6.36679688 3.05347656 5.58984375 3.04882812 C3.72652873 3.03703499 1.86325445 3.01909942 0 3 C0 2.01 0 1.02 0 0 Z " fill="#030304" transform="translate(205,333)"/>
</svg>
